<svg width="0" height="0" class="hidden">
  <symbol version="1.1" id="laptop" xmlns="http://www.w3.org/2000/svg" xmlns:xlink="http://www.w3.org/1999/xlink" x="0px" y="0px" enable-background="new 0 0 32 32" xml:space="preserve" viewBox="0 0 32 32">
    <path fill="#2D2220" d="M26,7v13H15.5c-0.28,0-0.5-0.22-0.5-0.5s0.22-0.5,0.5-0.5H25V8H7v11h1.5C8.78,19,9,19.22,9,19.5
	S8.78,20,8.5,20H6V7H26z"></path>
    <rect x="14" y="8" fill="#FFD561" width="11" height="11"></rect>
    <rect x="12" y="8" fill="#FFD561" width="1" height="11"></rect>
    <rect x="10" y="8" fill="#FFD561" width="1" height="11"></rect>
    <rect x="1" y="28" fill="#FFD561" width="30" height="1"></rect>
    <path fill="#2D2220" d="M23,5.5C23,5.78,22.78,6,22.5,6h-8C14.22,6,14,5.78,14,5.5S14.22,5,14.5,5h8C22.78,5,23,5.22,23,5.5z"></path>
    <path fill="#2D2220" d="M30.86,26.49l-3-5c-0.061-0.101-0.141-0.19-0.23-0.26C27.85,20.94,28,20.55,28,20V7c0,0,0-2-2-2s-2,0-2,0
	h0.5C24.22,5,24,5.22,24,5.5S24.22,6,24.5,6H26c0.81,0,0.99,0.55,1,1v13c0,0.81-0.55,0.99-1,1H6c-0.81,0-0.99-0.55-1-1V7
	c0-0.81,0.55-0.99,1-1h16.5C22.779,6,23,5.78,23,5.5S22.779,5,22.5,5H6c0,0-2,0-2,2v13c0,0,0,0.66,0.38,1.22
	c-0.09,0.07-0.18,0.16-0.24,0.271l-3,5c-0.18,0.3-0.19,0.689-0.01,1C1.31,27.81,1.64,28,2,28h28c0.36,0,0.69-0.19,0.87-0.51
	C31.05,27.18,31.04,26.79,30.86,26.49z M2,27l3-5h22l3,5H2z"></path>
    <path fill="#2D2220" d="M14,19.5c0-0.276-0.224-0.5-0.5-0.5h-3c-0.276,0-0.5,0.224-0.5,0.5l0,0c0,0.276,0.224,0.5,0.5,0.5h3
	C13.776,20,14,19.776,14,19.5L14,19.5z"></path>
    <path fill="#2D2220" d="M19,25.5c0-0.276-0.224-0.5-0.5-0.5h-13C5.224,25,5,25.224,5,25.5l0,0C5,25.776,5.224,26,5.5,26h13
	C18.776,26,19,25.776,19,25.5L19,25.5z"></path>
    <path fill="#2D2220" d="M23,25.5c0-0.276-0.224-0.5-0.5-0.5h-1c-0.276,0-0.5,0.224-0.5,0.5l0,0c0,0.276,0.224,0.5,0.5,0.5h1
	C22.776,26,23,25.776,23,25.5L23,25.5z"></path>
    <path fill="#2D2220" d="M27,25.5c0-0.276-0.224-0.5-0.5-0.5h-1c-0.276,0-0.5,0.224-0.5,0.5l0,0c0,0.276,0.224,0.5,0.5,0.5h1
	C26.776,26,27,25.776,27,25.5L27,25.5z"></path>
    <path fill="#2D2220" d="M25,23.5c0-0.276-0.224-0.5-0.5-0.5h-9c-0.276,0-0.5,0.224-0.5,0.5l0,0c0,0.276,0.224,0.5,0.5,0.5h9
	C24.776,24,25,23.776,25,23.5L25,23.5z"></path>
    <path fill="#2D2220" d="M13,23.5c0-0.276-0.224-0.5-0.5-0.5h-1c-0.276,0-0.5,0.224-0.5,0.5l0,0c0,0.276,0.224,0.5,0.5,0.5h1
	C12.776,24,13,23.776,13,23.5L13,23.5z"></path>
    <path fill="#2D2220" d="M9,23.5C9,23.224,8.776,23,8.5,23h-1C7.224,23,7,23.224,7,23.5l0,0C7,23.776,7.224,24,7.5,24h1
	C8.776,24,9,23.776,9,23.5L9,23.5z"></path>
  </symbol>
  <symbol version="1.1" id="monitor" xmlns="http://www.w3.org/2000/svg" xmlns:xlink="http://www.w3.org/1999/xlink" x="0px" y="0px" enable-background="new 0 0 32 32" xml:space="preserve" viewBox="0 0 32 32">
    <rect x="12" y="8" fill="#FFD561" width="1" height="14"></rect>
    <rect x="10" y="8" fill="#FFD561" width="1" height="14"></rect>
    <path fill="#FFD561" d="M14,8v14h14V10c0,0-1-2-2-2H14z"></path>
    <g>
      <path fill="#2D2220" d="M28.5,6h-25C2.67,6,2,6.67,2,7.5v16C2,24.33,2.67,25,3.5,25H15v2h-5v1h12v-1h-5v-2h11.5
		c0.83,0,1.5-0.67,1.5-1.5v-16C30,6.67,29.33,6,28.5,6z M29,21H6v1h23v1.5c0,0.28-0.22,0.5-0.5,0.5h-25C3.22,24,3,23.78,3,23.5v-16
		C3,7.22,3.22,7,3.5,7h25C28.78,7,29,7.22,29,7.5V21z"></path>
    </g>
    <g>
      <path fill="#2D2220" d="M28,9.5v10h-1v-10c0-0.4-0.28-0.49-0.51-0.5H5.5C5.1,9,5.01,9.27,5,9.51V22H4V9.5C4,8.9,4.4,8,5.5,8h21
		C27.1,8,28,8.4,28,9.5z"></path>
    </g>
    <rect x="11" y="28" fill="#FFD561" width="8" height="1"></rect>
    <rect x="20" y="28" fill="#FFD561" width="3" height="1"></rect>
  </symbol>
  <symbol version="1.1" id="device" xmlns="http://www.w3.org/2000/svg" xmlns:xlink="http://www.w3.org/1999/xlink" x="0px" y="0px" enable-background="new 0 0 32 32" xml:space="preserve" viewBox="0 0 32 32">
    <circle fill="#5FFFBA" cx="17" cy="28" r="1"></circle>
    <rect x="13" y="4" fill="#2D2220" width="6" height="1"></rect>
    <g>
      <path fill="#2D2220" d="M13,4v1h6V4H13z M13,4v1h6V4H13z M13,4v1h6V4H13z M13,4v1h6V4H13z M10,24v1h12v-1H10z M13,4v1h6V4H13z
		 M10,24v1h12v-1H10z M13,4v1h6V4H13z M10,24v1h12v-1H10z M23,2H9C8.45,2,8,2.45,8,3v5h1V7h14v21c0,0.55-0.45,1-1,1H10
		c-0.55,0-1-0.45-1-1V13H8v16c0,0.55,0.45,1,1,1h14c0.55,0,1-0.45,1-1V3C24,2.45,23.55,2,23,2z M23,6H9V4c0-0.55,0.45-1,1-1h12
		c0.55,0,1,0.45,1,1V6z M22,24H10v1h12V24z M13,5h6V4h-6V5z M10,24v1h12v-1H10z M13,4v1h6V4H13z M13,4v1h6V4H13z M13,4v1h6V4H13z
		 M13,4v1h6V4H13z"></path>
      <rect x="13" y="4" fill="#2D2220" width="6" height="1"></rect>
    </g>
    <rect x="13" y="4" fill="#2D2220" width="6" height="1"></rect>
    <rect x="13" y="4" fill="#2D2220" width="6" height="1"></rect>
    <rect x="14" y="5" fill="#5FFFBA" width="6" height="1"></rect>
    <rect x="15" y="7" fill="#5FFFBA" width="1" height="17"></rect>
    <rect x="13" y="7" fill="#5FFFBA" width="1" height="17"></rect>
    <rect x="17" y="7" fill="#5FFFBA" width="6" height="17"></rect>
    <circle fill="#2D2220" cx="16" cy="27" r="1"></circle>
    <path fill="#2D2220" d="M10,9.5C10,9.224,9.776,9,9.5,9h-2C7.224,9,7,9.224,7,9.5l0,0C7,9.776,7.224,10,7.5,10h2
	C9.776,10,10,9.776,10,9.5L10,9.5z"></path>
    <path fill="#2D2220" d="M10,11.5c0-0.276-0.224-0.5-0.5-0.5h-2C7.224,11,7,11.224,7,11.5l0,0C7,11.776,7.224,12,7.5,12h2
	C9.776,12,10,11.776,10,11.5L10,11.5z"></path>
  </symbol>
</svg>