<svg width="0" height="0" class="hidden">
  <symbol fill="#5AC550" xmlns="http://www.w3.org/2000/svg" viewBox="0 0 24 24" id="check">
    <path d="M9 16.17L4.83 12l-1.42 1.41L9 19 21 7l-1.41-1.41z"></path>
  </symbol>
  <symbol version="1.1" id="maestro" xmlnsSketch="http://www.bohemiancoding.com/sketch/ns" xmlns="http://www.w3.org/2000/svg" xmlns:xlink="http://www.w3.org/1999/xlink" x="0px" y="0px" enable-background="new 0 0 750 471" xml:space="preserve" viewBox="0 0 750 471">
    <title>Slice 1</title>
    <desc>Created with Sketch.</desc>
    <g id="Page-1" sketchType="MSPage">
      <g id="maestro" sketchType="MSLayerGroup">
        <path id="Fill-1" sketchType="MSShapeGroup" fill="#D9222A" d="M675,235.506c0,99.133-80.351,179.496-179.483,179.496
			c-99.121,0-179.479-80.362-179.479-179.496c0-99.142,80.358-179.508,179.479-179.508C594.65,55.998,675,136.365,675,235.506"></path>
        <path id="Fill-2" sketchType="MSShapeGroup" fill="#0097D0" d="M356.87,349.49c-4.958-6.014-9.524-12.359-13.675-19.009h63.612
			c3.817-6.097,7.263-12.442,10.342-19.013h-84.292c-2.87-6.15-5.425-12.492-7.596-19h99.476c5.987-17.904,9.229-37.05,9.229-56.962
			c0-13.046-1.392-25.763-4.028-38.013H320.074c1.392-6.479,3.142-12.816,5.209-19.008h99.441
			c-2.184-6.508-4.721-12.85-7.592-19.004h-84.254c3.075-6.563,6.529-12.904,10.337-19.009h63.571
			c-4.146-6.629-8.725-12.975-13.671-18.991h-36.225c5.57-6.767,11.629-13.117,18.112-19
			c-31.854-28.884-74.138-46.483-120.517-46.483C155.359,55.998,75,136.365,75,235.506c0,99.133,80.358,179.496,179.487,179.496
			c46.388,0,88.666-17.596,120.517-46.475c6.496-5.893,12.559-12.259,18.133-19.037H356.87"></path>
        <path id="Fill-3" sketchType="MSShapeGroup" d="M651.074,335.544c0-3.2,2.596-5.796,5.801-5.796c3.199,0,5.791,2.596,5.791,5.796
			c0,3.204-2.592,5.8-5.791,5.8C653.67,341.344,651.074,338.748,651.074,335.544L651.074,335.544L651.074,335.544z M656.875,339.952
			c2.433,0,4.403-1.967,4.403-4.408c0-2.434-1.971-4.396-4.403-4.396c-2.434,0-4.409,1.962-4.409,4.396
			C652.466,337.985,654.442,339.952,656.875,339.952L656.875,339.952L656.875,339.952z M656.087,338.09h-1.184v-5.092h2.15
			c0.446,0,0.904,0.004,1.3,0.258c0.417,0.283,0.646,0.775,0.646,1.271c0,0.583-0.338,1.112-0.88,1.316l0.934,2.246h-1.316
			l-0.775-2.009h-0.875V338.09L656.087,338.09z M656.087,335.211h0.658c0.246,0,0.505,0.016,0.726-0.101
			c0.195-0.129,0.3-0.366,0.3-0.592c0-0.188-0.125-0.417-0.288-0.513c-0.212-0.125-0.541-0.1-0.762-0.1h-0.634V335.211
			L656.087,335.211z"></path>
        <path id="Fill-4" sketchType="MSShapeGroup" d="M372.446,284.006c-7.671,2.033-15.088,3.025-22.929,3.009
			c-25.017-0.024-38.046-11.417-38.046-33.2c0-25.458,16.587-44.183,39.1-44.183c18.417,0,30.175,10.5,30.175,26.946
			c0,5.458-0.796,10.771-2.745,18.296h-44.488c-1.583,10.633,6.188,15.305,19.413,15.305c7.925,0,15.092-1.426,23.024-4.613
			L372.446,284.006L372.446,284.006z M360.483,239.856c0-1.608,2.476-13.034-10.399-13.284c-7.108,0-12.208,4.725-14.271,13.284
			H360.483L360.483,239.856z"></path>
        <path id="Fill-5" sketchType="MSShapeGroup" d="M387.517,234.865c0,9.404,5.296,15.9,17.329,20.737
			c9.199,3.771,10.649,4.859,10.649,8.221c0,4.663-4.066,6.805-13.092,6.746c-6.778-0.05-12.962-0.871-20.262-2.896l-3.229,17.154
			c6.487,1.504,15.588,2,23.65,2.188c24.024,0,35.116-7.866,35.116-24.866c0-10.217-4.625-16.234-16.033-20.713
			c-9.538-3.809-10.658-4.638-10.658-8.083c0-4.05,3.779-6.1,11.149-6.1c4.463,0,10.579,0.413,16.38,1.108l3.258-17.242
			c-5.912-0.825-14.883-1.483-20.075-1.483C396.25,209.635,387.442,221.094,387.517,234.865"></path>
        <path id="Fill-6" sketchType="MSShapeGroup" d="M299.275,285.785h-18.662l0.445-7.82c-5.691,6.17-13.271,9.041-23.558,9.041
			c-12.175,0-20.517-8.324-20.517-20.295c0-18.196,14.5-28.692,39.429-28.692c2.563,0,5.821,0.192,9.167,0.563
			c0.691-2.433,0.879-3.479,0.879-4.808c0-4.979-3.921-6.813-14.412-6.813c-10.342,0.042-17.321,1.571-23.796,3.313l3.188-16.7
			c11.195-2.846,18.529-3.941,26.825-3.941c19.304,0,29.499,7.566,29.499,21.796c0.167,3.795-1.158,11.413-1.82,14.746
			C305.183,251.027,299.833,279.148,299.275,285.785L299.275,285.785L299.275,285.785z M282.896,252.594
			c-2.366-0.242-3.396-0.313-5.013-0.313c-12.729,0-19.183,3.787-19.183,11.267c0,4.692,3.149,7.634,8.058,7.634
			C275.905,271.182,282.508,263.531,282.896,252.594L282.896,252.594L282.896,252.594z"></path>
        <path id="Fill-7" sketchType="MSShapeGroup" d="M477.004,284.606c-6.125,1.679-10.896,2.408-16.059,2.408
			c-11.434,0-17.675-5.842-17.675-16.25c-0.358-2.858,2.434-16.059,3.066-19.737c0.634-3.691,10.538-57.492,10.538-57.492h22.212
			l-3.362,17.8h11.392l-3.096,18.171h-11.441c0,0-6.279,31.529-6.279,33.933c0,3.825,2.316,5.488,7.633,5.488
			c2.546,0,4.509-0.238,6.029-0.692L477.004,284.606"></path>
        <path id="Fill-8" sketchType="MSShapeGroup" d="M576.25,209.631c-16.279,0-29,6.7-36.388,17.892l6.412-16.596
			c-11.816-4.337-19.434,1.85-26.325,10.65c0,0-1.154,1.462-2.3,2.8v-13.05h-20.858c-2.825,23.029-7.82,46.379-11.729,69.446
			l-0.942,5.021h22.438c2.125-11.708,3.875-21.213,5.617-28.788c4.767-20.787,12.787-27.141,24.829-24.333
			c-2.779,5.979-4.305,12.892-4.305,20.554c0,18.58,10.092,33.788,35.15,33.788c25.287,0,43.596-13.509,43.596-44.309
			C611.446,224.127,599.245,209.631,576.25,209.631L576.25,209.631L576.25,209.631z M569.721,268.947
			c-7.926,0.125-12.729-6.524-12.729-16.471c0-11.791,7.013-25.112,18.275-25.112c9.087,0,12.199,7.204,12.199,14.879
			C587.466,259.023,580.591,268.947,569.721,268.947L569.721,268.947L569.721,268.947z"></path>
        <path id="Fill-9" sketchType="MSShapeGroup" d="M226.53,285.794h-22.342l13.279-69.954l-30.571,69.954H166.53l-3.726-69.55
			l-13.32,69.55h-20.271l17.267-90.996h34.913l2.912,50.726l22.117-50.726h37.721L226.53,285.794"></path>
        <path id="Fill-10" sketchType="MSShapeGroup" fill="#FFFFFF" d="M613.15,274.385c0-3.195,2.596-5.795,5.796-5.795
			c3.204,0,5.796,2.6,5.796,5.795c0,3.209-2.592,5.805-5.796,5.805C615.745,280.189,613.15,277.594,613.15,274.385L613.15,274.385
			L613.15,274.385z M618.946,278.798c2.434,0,4.408-1.979,4.408-4.413c0-2.433-1.975-4.403-4.408-4.403s-4.408,1.971-4.408,4.403
			C614.537,276.818,616.512,278.798,618.946,278.798L618.946,278.798L618.946,278.798z M618.162,276.932h-1.188v-5.084h2.15
			c0.449,0,0.908,0,1.304,0.25c0.408,0.279,0.646,0.768,0.646,1.271c0,0.578-0.337,1.116-0.883,1.316l0.934,2.246h-1.317
			l-0.771-2.009h-0.875V276.932L618.162,276.932z M618.162,274.044h0.658c0.242,0,0.504,0.017,0.725-0.097
			c0.196-0.133,0.296-0.357,0.296-0.587c0-0.196-0.12-0.417-0.283-0.513c-0.212-0.129-0.541-0.096-0.763-0.096h-0.633V274.044
			L618.162,274.044z"></path>
        <path id="Fill-11" sketchType="MSShapeGroup" fill="#FFFFFF" d="M378.054,278.398c-7.667,2.033-15.088,3.029-22.925,3.012
			c-25.017-0.025-38.046-11.42-38.046-33.208c0-25.45,16.579-44.179,39.096-44.179c18.421,0,30.175,10.496,30.175,26.942
			c0,5.467-0.8,10.771-2.741,18.3h-44.487c-1.584,10.629,6.179,15.308,19.408,15.308c7.925,0,15.087-1.424,23.029-4.616
			L378.054,278.398L378.054,278.398z M366.091,234.248c0-1.604,2.472-13.033-10.399-13.279c-7.108,0-12.204,4.729-14.271,13.279
			H366.091L366.091,234.248z"></path>
        <path id="Fill-12" sketchType="MSShapeGroup" fill="#FFFFFF" d="M393.129,229.252c0,9.408,5.287,15.9,17.325,20.746
			c9.204,3.767,10.649,4.858,10.649,8.213c0,4.666-4.066,6.808-13.087,6.75c-6.784-0.047-12.967-0.871-20.263-2.896l-3.237,17.146
			c6.491,1.516,15.596,2.012,23.653,2.199c24.025,0,35.121-7.871,35.121-24.871c0-10.217-4.629-16.236-16.041-20.712
			c-9.538-3.809-10.654-4.638-10.654-8.083c0-4.05,3.783-6.1,11.146-6.1c4.471,0,10.583,0.417,16.388,1.113l3.25-17.246
			c-5.913-0.825-14.879-1.483-20.066-1.483C401.854,204.027,393.05,215.481,393.129,229.252"></path>
        <path id="Fill-13" sketchType="MSShapeGroup" fill="#FFFFFF" d="M304.887,280.182h-18.666l0.45-7.821
			c-5.696,6.158-13.275,9.033-23.559,9.033c-12.175,0-20.521-8.325-20.521-20.287c0-18.204,14.495-28.696,39.429-28.696
			c2.563,0,5.816,0.192,9.171,0.563c0.691-2.433,0.875-3.475,0.875-4.808c0-4.983-3.917-6.813-14.408-6.813
			c-10.342,0.042-17.321,1.575-23.796,3.313l3.184-16.696c11.199-2.85,18.529-3.946,26.829-3.946
			c19.304,0,29.495,7.567,29.495,21.792c0.167,3.8-1.158,11.412-1.816,14.754C310.791,245.419,305.442,273.539,304.887,280.182
			L304.887,280.182L304.887,280.182z M288.5,246.985c-2.358-0.245-3.392-0.313-5.013-0.313c-12.721,0-19.18,3.788-19.18,11.267
			c0,4.695,3.154,7.633,8.055,7.633C281.517,265.572,288.12,257.919,288.5,246.985L288.5,246.985L288.5,246.985z"></path>
        <path id="Fill-14" sketchType="MSShapeGroup" fill="#FFFFFF" d="M482.608,279.002c-6.12,1.676-10.896,2.408-16.054,2.408
			c-11.434,0-17.671-5.846-17.671-16.254c-0.362-2.854,2.434-16.059,3.063-19.737c0.634-3.692,10.537-57.492,10.537-57.492h22.209
			l-3.354,17.8h11.392l-3.096,18.171h-11.441c0,0-6.283,31.53-6.283,33.933c0,3.825,2.32,5.479,7.633,5.479
			c2.542,0,4.509-0.229,6.029-0.691L482.608,279.002"></path>
        <path id="Fill-15" sketchType="MSShapeGroup" fill="#FFFFFF" d="M593.079,236.635c0,16.775-6.88,26.709-17.755,26.709
			c-7.921,0.112-12.725-6.525-12.725-16.475c0-11.792,7.008-25.113,18.271-25.113C589.962,221.756,593.079,228.969,593.079,236.635
			L593.079,236.635L593.079,236.635z M617.058,237.102c0-18.579-12.208-33.079-35.195-33.079c-26.45,0-43.55,17.625-43.55,43.596
			c0,18.578,10.083,33.791,35.149,33.791C598.75,281.41,617.058,267.898,617.058,237.102L617.058,237.102L617.058,237.102z"></path>
        <path id="Fill-16" sketchType="MSShapeGroup" fill="#FFFFFF" d="M502.396,205.719c-2.821,23.029-7.816,46.375-11.721,69.45
			l-0.946,5.021h22.434c8.088-44.558,10.8-57.254,27.741-52.783l8.15-21.087c-11.816-4.337-19.425,1.854-26.309,10.658
			c0.621-3.962,1.792-7.783,1.509-11.258H502.396"></path>
        <path id="Fill-17" sketchType="MSShapeGroup" fill="#FFFFFF" d="M232.138,280.189H209.8l13.275-69.958L192.5,280.189h-20.362
			l-3.726-69.554l-13.32,69.554h-20.271l17.263-91h34.921l1.846,56.334l24.575-56.334h36.325L232.138,280.189"></path>
      </g>
    </g>
  </symbol>
  <symbol version="1.1" id="visa" xmlnsSketch="http://www.bohemiancoding.com/sketch/ns" xmlns="http://www.w3.org/2000/svg" xmlns:xlink="http://www.w3.org/1999/xlink" x="0px" y="0px" enable-background="new 0 0 750 471" xml:space="preserve" viewBox="0 0 750 471">
    <title>Slice 1</title>
    <desc>Created with Sketch.</desc>
    <g id="visa" sketchType="MSLayerGroup">
      <path id="Shape" sketchType="MSShapeGroup" fill="#0E4595" d="M278.198,334.228l33.36-195.763h53.358l-33.384,195.763H278.198
		L278.198,334.228z"></path>
      <path id="path13" sketchType="MSShapeGroup" fill="#0E4595" d="M524.307,142.687c-10.57-3.966-27.135-8.222-47.822-8.222
		c-52.725,0-89.863,26.551-90.18,64.604c-0.297,28.129,26.514,43.821,46.754,53.185c20.77,9.597,27.752,15.716,27.652,24.283
		c-0.133,13.123-16.586,19.116-31.924,19.116c-21.355,0-32.701-2.967-50.225-10.274l-6.877-3.112l-7.488,43.823
		c12.463,5.466,35.508,10.199,59.438,10.445c56.09,0,92.502-26.248,92.916-66.884c0.199-22.27-14.016-39.216-44.801-53.188
		c-18.65-9.056-30.072-15.099-29.951-24.269c0-8.137,9.668-16.838,30.559-16.838c17.447-0.271,30.088,3.534,39.936,7.5l4.781,2.259
		L524.307,142.687"></path>
      <path id="Path" sketchType="MSShapeGroup" fill="#0E4595" d="M661.615,138.464h-41.23c-12.773,0-22.332,3.486-27.941,16.234
		l-79.244,179.402h56.031c0,0,9.16-24.121,11.232-29.418c6.123,0,60.555,0.084,68.336,0.084c1.596,6.854,6.492,29.334,6.492,29.334
		h49.512L661.615,138.464L661.615,138.464z M596.198,264.872c4.414-11.279,21.26-54.724,21.26-54.724
		c-0.314,0.521,4.381-11.334,7.074-18.684l3.607,16.878c0,0,10.217,46.729,12.352,56.527h-44.293V264.872L596.198,264.872z"></path>
      <path id="path16" sketchType="MSShapeGroup" fill="#0E4595" d="M232.903,138.464L180.664,271.96l-5.565-27.129
		c-9.726-31.274-40.025-65.157-73.898-82.12l47.767,171.204l56.455-0.064l84.004-195.386L232.903,138.464"></path>
      <path id="path18" sketchType="MSShapeGroup" fill="#F2AE14" d="M131.92,138.464H45.879l-0.682,4.073
		c66.939,16.204,111.232,55.363,129.618,102.415l-18.709-89.96C152.877,142.596,143.509,138.896,131.92,138.464"></path>
    </g>
  </symbol>
  <symbol version="1.1" id="mastercard" xmlnsSketch="http://www.bohemiancoding.com/sketch/ns" xmlns="http://www.w3.org/2000/svg" xmlns:xlink="http://www.w3.org/1999/xlink" x="0px" y="0px" enable-background="new 0 0 750 471" xml:space="preserve" viewBox="0 0 750 471">
    <title>Slice 1</title>
    <desc>Created with Sketch.</desc>
    <g id="Page-1" sketchType="MSPage">
      <g id="mastercard" sketchType="MSLayerGroup">
        <path id="Fill-1" sketchType="MSShapeGroup" fill="#D9222A" d="M434.008,235.5c0,99.142-80.371,179.504-179.508,179.504
			C155.363,415.004,75,334.642,75,235.5c0-99.133,80.362-179.504,179.5-179.504C353.637,55.996,434.008,136.367,434.008,235.5"></path>
        <path id="Fill-2" sketchType="MSShapeGroup" fill="#EE9F2D" d="M495.491,55.996c-46.379,0-88.642,17.596-120.5,46.467
			c-6.487,5.883-12.546,12.238-18.125,18.996h36.267c4.958,6.029,9.525,12.371,13.684,19.012h-63.634
			c-3.813,6.104-7.274,12.446-10.342,19.008h84.313c2.88,6.159,5.421,12.496,7.601,19.004h-99.513
			c-2.075,6.191-3.821,12.529-5.217,19.008h109.941c2.638,12.25,4.042,24.967,4.042,38.008c0,19.934-3.254,39.112-9.254,57.021
			h-99.513c2.175,6.512,4.717,12.854,7.596,19.008h84.316c-3.074,6.563-6.528,12.904-10.346,19.012h-63.625
			c4.154,6.63,8.729,12.98,13.684,18.996h36.259c-5.571,6.771-11.634,13.134-18.13,19.013
			c31.858,28.866,74.117,46.454,120.496,46.454C594.629,415.004,675,334.642,675,235.5C675,136.371,594.629,55.996,495.491,55.996"></path>
        <path id="Fill-3" sketchType="MSShapeGroup" d="M651.074,335.559c0-3.2,2.592-5.801,5.796-5.801s5.796,2.601,5.796,5.801
			c0,3.199-2.592,5.8-5.796,5.8S651.074,338.758,651.074,335.559L651.074,335.559L651.074,335.559z M656.87,339.967
			c2.434,0,4.408-1.975,4.408-4.408c0-2.438-1.975-4.404-4.408-4.404c-2.438,0-4.404,1.967-4.404,4.404
			C652.466,337.992,654.433,339.967,656.87,339.967L656.87,339.967L656.87,339.967z M656.087,338.108H654.9v-5.096h2.15
			c0.45,0,0.908,0,1.304,0.254c0.413,0.279,0.646,0.771,0.646,1.279c0,0.571-0.338,1.104-0.884,1.313l0.938,2.25h-1.316
			l-0.779-2.017h-0.871V338.108L656.087,338.108z M656.087,335.217h0.658c0.246,0,0.505,0.021,0.726-0.1
			c0.195-0.125,0.296-0.359,0.296-0.584c0-0.195-0.121-0.421-0.288-0.517c-0.208-0.129-0.537-0.101-0.758-0.101h-0.634V335.217
			L656.087,335.217z"></path>
        <path id="Fill-4" sketchType="MSShapeGroup" d="M212.587,255.154c-2.046-0.238-2.945-0.301-4.35-0.301
			c-11.046,0-16.638,3.788-16.638,11.268c0,4.612,2.729,7.545,6.987,7.545C206.525,273.666,212.245,266.108,212.587,255.154
			L212.587,255.154L212.587,255.154z M226.758,288.15h-16.146l0.371-7.676c-4.926,6.066-11.496,8.95-20.426,8.95
			c-10.563,0-17.804-8.25-17.804-20.229c0-18.024,12.596-28.541,34.217-28.541c2.208,0,5.042,0.199,7.941,0.57
			c0.604-2.441,0.763-3.487,0.763-4.8c0-4.908-3.396-6.737-12.5-6.737c-9.533-0.108-17.396,2.271-20.625,3.333
			c0.204-1.229,2.7-16.659,2.7-16.659c9.712-2.846,16.116-3.917,23.325-3.917c16.732,0,25.596,7.513,25.579,21.712
			c0.033,3.805-0.597,8.5-1.579,14.671C230.883,259.559,227.254,282.546,226.758,288.15L226.758,288.15L226.758,288.15z"></path>
        <path id="Fill-5" sketchType="MSShapeGroup" d="M164.6,288.15h-19.487l11.162-69.996L131.35,288.15h-13.279l-1.642-69.596
			l-11.733,69.596H86.454l15.237-91.055h28.021l1.7,50.967l17.092-50.967h31.167L164.6,288.15"></path>
        <path id="Fill-6" sketchType="MSShapeGroup" d="M519.574,255.154c-2.037-0.238-2.941-0.301-4.342-0.301
			c-11.041,0-16.633,3.788-16.633,11.268c0,4.612,2.725,7.545,6.983,7.545C513.521,273.666,519.245,266.108,519.574,255.154
			L519.574,255.154L519.574,255.154z M533.758,288.15h-16.146l0.366-7.676c-4.925,6.066-11.5,8.95-20.421,8.95
			c-10.566,0-17.8-8.25-17.8-20.229c0-18.024,12.588-28.541,34.213-28.541c2.208,0,5.037,0.199,7.933,0.57
			c0.604-2.441,0.763-3.487,0.763-4.8c0-4.908-3.392-6.737-12.496-6.737c-9.533-0.108-17.387,2.271-20.629,3.333
			c0.204-1.229,2.709-16.659,2.709-16.659c9.712-2.846,16.112-3.917,23.313-3.917c16.741,0,25.604,7.513,25.587,21.712
			c0.033,3.805-0.596,8.5-1.579,14.671C537.887,259.559,534.25,282.546,533.758,288.15L533.758,288.15L533.758,288.15z"></path>
        <path id="Fill-7" sketchType="MSShapeGroup" d="M313.366,287.025c-5.333,1.679-9.491,2.399-14,2.399
			c-9.962,0-15.399-5.725-15.399-16.267c-0.142-3.271,1.433-11.879,2.671-19.737c1.125-6.917,8.449-50.529,8.449-50.529h19.371
			l-2.263,11.208h11.7l-2.642,17.796h-11.742c-2.25,14.083-5.454,31.625-5.491,33.95c0,3.816,2.037,5.483,6.671,5.483
			c2.221,0,3.941-0.226,5.254-0.7L313.366,287.025"></path>
        <path id="Fill-8" sketchType="MSShapeGroup" d="M372.758,286.425c-6.654,2.034-13.075,3.017-19.879,3
			c-21.684-0.021-32.987-11.346-32.987-33.033c0-25.313,14.379-43.946,33.899-43.946c15.971,0,26.171,10.433,26.171,26.796
			c0,5.429-0.7,10.729-2.388,18.212H339c-1.305,10.741,5.57,15.217,16.837,15.217c6.934,0,13.188-1.429,20.142-4.663
			L372.758,286.425L372.758,286.425z M361.87,242.525c0.108-1.542,2.055-13.217-9.013-13.217c-6.17,0-10.583,4.704-12.379,13.217
			H361.87L361.87,242.525z"></path>
        <path id="Fill-9" sketchType="MSShapeGroup" d="M238.446,237.508c0,9.367,4.542,15.826,14.842,20.676
			c7.892,3.708,9.112,4.809,9.112,8.17c0,4.617-3.479,6.701-11.191,6.701c-5.813,0-11.221-0.908-17.458-2.922
			c0,0-2.563,16.321-2.68,17.101c4.43,0.967,8.38,1.862,20.279,2.191c20.563,0,30.059-7.829,30.059-24.75
			c0-10.175-3.976-16.146-13.737-20.634c-8.171-3.75-9.108-4.587-9.108-8.045c0-4.004,3.237-6.046,9.537-6.046
			c3.825,0,9.05,0.408,14,1.112l2.775-17.175c-5.046-0.8-12.696-1.442-17.15-1.442C245.925,212.446,238.379,223.833,238.446,237.508
			"></path>
        <path id="Fill-10" sketchType="MSShapeGroup" d="M467.533,214.392c5.412,0,10.458,1.421,17.412,4.921l3.188-19.763
			c-2.854-1.121-12.904-7.7-21.417-7.7c-13.041,0-24.066,6.471-31.82,17.15c-11.309-3.746-15.958,3.825-21.658,11.367l-5.063,1.179
			c0.383-2.483,0.729-4.95,0.612-7.446h-17.896c-2.446,22.917-6.779,46.128-10.171,69.075l-0.884,4.976h19.496
			c3.254-21.143,5.037-34.68,6.121-43.842l7.341-4.084c1.097-4.078,4.529-5.458,11.417-5.291c-0.899,4.833-1.383,9.916-1.383,15.184
			c0,24.225,13.07,39.308,34.05,39.308c5.404,0,10.041-0.712,17.221-2.658l3.429-20.759c-6.458,3.18-11.758,4.676-16.558,4.676
			c-11.329,0-18.184-8.363-18.184-22.184C442.787,228.45,452.983,214.392,467.533,214.392"></path>
        <path id="Fill-12" sketchType="MSShapeGroup" fill="#FFFFFF" d="M170.208,282.742h-19.491l11.171-69.988l-24.926,69.988h-13.283
			l-1.642-69.588l-11.733,69.588H92.063L107.3,191.7h28.021l0.788,56.362l18.904-56.362h30.267L170.208,282.742"></path>
        <path id="Fill-11" sketchType="MSShapeGroup" d="M632.521,197.096l-4.321,26.309c-5.329-7.013-11.054-12.088-18.612-12.088
			c-9.833,0-18.783,7.455-24.642,18.425c-8.158-1.692-16.596-4.563-16.596-4.563l-0.004,0.067c0.658-6.134,0.921-9.875,0.862-11.146
			h-17.9c-2.438,22.917-6.771,46.128-10.158,69.075l-0.892,4.976h19.492c2.633-17.096,4.649-31.292,6.133-42.551
			c6.658-6.016,9.992-11.266,16.721-10.916c-2.979,7.204-4.725,15.504-4.725,24.017c0,18.513,9.366,30.725,23.533,30.725
			c7.142,0,12.621-2.462,17.967-8.171l-0.913,6.884H636.9l14.842-91.042H632.521L632.521,197.096z M608.15,271.037
			c-6.633,0-9.983-4.908-9.983-14.596c0-14.554,6.271-24.875,15.112-24.875c6.696,0,10.321,5.104,10.321,14.509
			C623.6,260.754,617.229,271.037,608.15,271.037L608.15,271.037L608.15,271.037z"></path>
        <path id="Fill-13" sketchType="MSShapeGroup" fill="#FFFFFF" d="M218.192,249.758c-2.042-0.236-2.946-0.299-4.346-0.299
			c-11.046,0-16.634,3.787-16.634,11.266c0,4.604,2.729,7.547,6.979,7.547C212.138,268.271,217.859,260.713,218.192,249.758
			L218.192,249.758L218.192,249.758z M232.37,282.742h-16.146l0.367-7.663c-4.921,6.054-11.5,8.95-20.421,8.95
			c-10.567,0-17.805-8.25-17.805-20.229c0-18.033,12.592-28.542,34.217-28.542c2.208,0,5.042,0.2,7.938,0.571
			c0.604-2.441,0.763-3.487,0.763-4.808c0-4.909-3.392-6.729-12.496-6.729c-9.537-0.108-17.396,2.271-20.629,3.321
			c0.204-1.225,2.7-16.637,2.7-16.637c9.708-2.858,16.12-3.929,23.32-3.929c16.737,0,25.604,7.517,25.588,21.704
			c0.029,3.821-0.604,8.513-1.584,14.675C236.495,254.15,232.863,277.15,232.37,282.742L232.37,282.742L232.37,282.742z"></path>
        <path id="Fill-14" sketchType="MSShapeGroup" fill="#FFFFFF" d="M493.745,194.15l-3.191,19.767c-6.95-3.496-12-4.92-17.408-4.92
			c-14.55,0-24.75,14.058-24.75,34.107c0,13.821,6.858,22.18,18.184,22.18c4.8,0,10.096-1.492,16.554-4.675l-3.421,20.75
			c-7.184,1.958-11.816,2.671-17.225,2.671c-20.976,0-34.05-15.084-34.05-39.309c0-32.55,18.058-55.3,43.887-55.3
			C480.833,189.421,490.887,193.029,493.745,194.15"></path>
        <path id="Fill-15" sketchType="MSShapeGroup" fill="#FFFFFF" d="M525.188,249.758c-2.042-0.236-2.942-0.299-4.347-0.299
			c-11.041,0-16.633,3.787-16.633,11.266c0,4.604,2.729,7.547,6.983,7.547C519.129,268.271,524.854,260.713,525.188,249.758
			L525.188,249.758L525.188,249.758z M539.366,282.742h-16.15l0.371-7.663c-4.925,6.054-11.5,8.95-20.421,8.95
			c-10.563,0-17.804-8.25-17.804-20.229c0-18.033,12.596-28.542,34.212-28.542c2.213,0,5.042,0.2,7.942,0.571
			c0.6-2.441,0.762-3.487,0.762-4.808c0-4.909-3.392-6.729-12.495-6.729c-9.533-0.108-17.396,2.271-20.63,3.321
			c0.204-1.225,2.704-16.637,2.704-16.637c9.709-2.858,16.117-3.929,23.317-3.929c16.741,0,25.604,7.517,25.583,21.704
			c0.033,3.821-0.596,8.513-1.579,14.675C543.495,254.15,539.854,277.15,539.366,282.742L539.366,282.742L539.366,282.742z"></path>
        <path id="Fill-16" sketchType="MSShapeGroup" fill="#FFFFFF" d="M318.975,281.621c-5.338,1.679-9.496,2.408-14,2.408
			c-9.962,0-15.399-5.725-15.399-16.267c-0.138-3.279,1.438-11.88,2.675-19.737c1.12-6.926,8.445-50.534,8.445-50.534h19.367
			l-2.259,11.212h9.941l-2.646,17.788h-9.975c-2.25,14.092-5.463,31.621-5.496,33.95c0,3.83,2.041,5.483,6.671,5.483
			c2.221,0,3.938-0.216,5.254-0.691L318.975,281.621"></path>
        <path id="Fill-17" sketchType="MSShapeGroup" fill="#FFFFFF" d="M378.366,281.029c-6.65,2.033-13.079,3.012-19.879,3
			c-21.684-0.021-32.987-11.346-32.987-33.033c0-25.321,14.379-43.95,33.899-43.95c15.971,0,26.171,10.429,26.171,26.8
			c0,5.434-0.7,10.733-2.383,18.213h-38.575c-1.305,10.741,5.57,15.221,16.837,15.221c6.93,0,13.188-1.434,20.138-4.676
			L378.366,281.029L378.366,281.029z M367.475,237.117c0.116-1.538,2.059-13.217-9.013-13.217c-6.167,0-10.579,4.717-12.375,13.217
			H367.475L367.475,237.117z"></path>
        <path id="Fill-18" sketchType="MSShapeGroup" fill="#FFFFFF" d="M244.054,232.112c0,9.366,4.542,15.817,14.842,20.675
			c7.892,3.709,9.112,4.813,9.112,8.172c0,4.616-3.483,6.699-11.188,6.699c-5.816,0-11.225-0.908-17.467-2.921
			c0,0-2.554,16.321-2.671,17.101c4.421,0.967,8.375,1.85,20.275,2.191c20.566,0,30.059-7.829,30.059-24.746
			c0-10.18-3.971-16.15-13.737-20.637c-8.167-3.759-9.113-4.584-9.113-8.046c0-4,3.246-6.059,9.542-6.059
			c3.821,0,9.046,0.421,14.004,1.125l2.771-17.179c-5.042-0.8-12.692-1.441-17.146-1.441
			C251.533,207.046,243.991,218.425,244.054,232.112"></path>
        <path id="Fill-19" sketchType="MSShapeGroup" fill="#FFFFFF" d="M642.508,282.742h-18.438l0.917-6.893
			c-5.346,5.717-10.825,8.18-17.967,8.18c-14.167,0-23.529-12.213-23.529-30.725c0-24.63,14.521-45.392,31.708-45.392
			c7.559,0,13.279,3.087,18.604,10.096l4.325-26.308h19.221L642.508,282.742L642.508,282.742z M613.762,265.633
			c9.075,0,15.45-10.283,15.45-24.953c0-9.405-3.629-14.509-10.325-14.509c-8.837,0-15.116,10.316-15.116,24.875
			C603.771,260.733,607.129,265.633,613.762,265.633L613.762,265.633L613.762,265.633z"></path>
        <path id="Fill-20" sketchType="MSShapeGroup" fill="#FFFFFF" d="M556.92,208.704c-2.441,22.917-6.774,46.13-10.162,69.063
			l-0.892,4.976h19.491c6.972-45.275,8.659-54.117,19.588-53.009c1.742-9.267,4.983-17.383,7.4-21.479
			c-8.163-1.7-12.721,2.913-18.688,11.675c0.471-3.788,1.333-7.467,1.162-11.225H556.92"></path>
        <path id="Fill-21" sketchType="MSShapeGroup" fill="#FFFFFF" d="M396.5,208.704c-2.446,22.917-6.779,46.13-10.167,69.063
			l-0.888,4.976h19.5c6.963-45.275,8.646-54.117,19.571-53.009c1.75-9.267,4.991-17.383,7.399-21.479
			c-8.154-1.7-12.717,2.913-18.679,11.675c0.471-3.788,1.325-7.467,1.162-11.225H396.5"></path>
        <path id="Fill-22" sketchType="MSShapeGroup" fill="#FFFFFF" d="M651.067,276.945c0-3.212,2.596-5.799,5.796-5.799
			c3.204,0,5.796,2.587,5.796,5.799c0,3.196-2.592,5.797-5.796,5.797C653.662,282.742,651.067,280.142,651.067,276.945
			L651.067,276.945L651.067,276.945z M656.863,281.35c2.438,0,4.404-1.975,4.404-4.404c0-2.433-1.967-4.408-4.404-4.408
			c-2.434,0-4.408,1.976-4.408,4.408C652.454,279.375,654.429,281.35,656.863,281.35L656.863,281.35L656.863,281.35z
			 M656.079,279.479h-1.188v-5.082h2.153c0.446,0,0.909,0.008,1.296,0.254c0.417,0.283,0.654,0.766,0.654,1.274
			c0,0.575-0.337,1.112-0.888,1.317l0.942,2.236h-1.321l-0.779-2.008h-0.87V279.479L656.079,279.479z M656.079,276.6h0.653
			c0.246,0,0.513,0.018,0.729-0.1c0.196-0.125,0.296-0.362,0.296-0.588c0-0.188-0.116-0.412-0.287-0.524
			c-0.204-0.116-0.542-0.083-0.763-0.083h-0.629V276.6L656.079,276.6z"></path>
      </g>
    </g>
  </symbol>
  <symbol fill="#fff" xmlns="http://www.w3.org/2000/svg" viewBox="0 0 24 24" id="arrow">
    <path d="M12 4l-1.41 1.41L16.17 11H4v2h12.17l-5.58 5.59L12 20l8-8z"></path>
  </symbol>
</svg>